<svg width="27" height="27" viewBox="0 0 27 27" fill="none" xmlns="http://www.w3.org/2000/svg">
<path d="M17.002 1.44555L17.0619 8.0336C17.0687 8.78922 17.9694 9.17804 18.4959 8.65326L20.59 6.56582C24.5333 10.5217 24.591 16.8736 20.7187 20.7337C19.7945 21.6549 18.715 22.3736 17.5623 22.8317C16.9624 23.0722 16.6138 23.6818 16.6196 24.3194C16.6306 25.5237 17.8657 26.3416 18.9712 25.8829C20.4766 25.2639 21.8847 24.3368 23.1014 23.1239C28.2723 17.9695 28.1955 9.51599 22.9297 4.23347L25.0238 2.14603C25.5503 1.62125 25.1643 0.719319 24.4207 0.722002L17.8328 0.641181C17.3723 0.623725 16.9979 0.996902 17.002 1.44555ZM6.55135 20.5599C2.60801 16.604 2.55028 10.252 6.4226 6.39201C7.34681 5.47073 8.42633 4.75205 9.57903 4.29399C10.1789 4.05344 10.5275 3.44384 10.5217 2.80629C10.5108 1.60202 9.27563 0.78411 8.17014 1.24276C6.66475 1.86177 5.25659 2.78891 4.03991 4.00173C-1.13098 9.15621 -1.05416 17.6097 4.21158 22.8922L2.11749 24.9797C1.59104 25.5044 1.97699 26.4064 2.72067 26.4037L9.3085 26.4845C9.78075 26.4903 10.1434 26.1288 10.1391 25.6565L10.0792 19.0685C10.0726 18.3365 9.1719 17.9476 8.64545 18.4724L6.55135 20.5599Z" fill="#E8F9FF" fill-opacity="0.4"/>
</svg>
